<?xml version="1.0" standalone="no"?>
<!DOCTYPE svg PUBLIC "-//W3C//DTD SVG 20010904//EN"
 "http://www.w3.org/TR/2001/REC-SVG-20010904/DTD/svg10.dtd">
<svg version="1.0" xmlns="http://www.w3.org/2000/svg"
 width="800.000000pt" height="264.000000pt" viewBox="0 0 800.000000 264.000000"
 preserveAspectRatio="xMidYMid meet">

<g transform="translate(0.000000,264.000000) scale(0.100000,-0.100000)"
fill="#000000" stroke="none">
<path d="M877 2496 c-43 -16 -74 -40 -82 -66 -3 -10 3 -87 14 -171 33 -252 41
-379 41 -685 0 -279 1 -292 21 -317 27 -36 88 -51 177 -44 75 6 138 29 156 59
7 12 5 79 -7 224 -10 114 -15 210 -11 213 9 10 240 13 373 6 l123 -7 -5 -37
c-16 -106 -30 -384 -20 -399 31 -49 176 -78 267 -52 84 23 80 3 88 434 5 326
10 408 32 571 28 213 27 224 -34 259 -27 16 -57 21 -135 24 -92 4 -103 2 -135
-20 l-35 -24 -5 -234 c-3 -129 -7 -236 -8 -238 -1 -1 -120 -1 -264 0 l-263 3
-5 235 c-3 129 -7 236 -8 238 -1 1 -17 11 -34 22 -26 16 -50 20 -118 20 -47
-1 -102 -7 -123 -14z"/>
<path d="M6830 1249 l0 -761 28 5 c15 3 87 13 160 23 125 16 139 16 205 1 111
-26 178 -30 255 -17 205 34 367 189 417 401 34 145 12 337 -54 467 -120 238
-422 303 -613 133 l-48 -43 0 276 0 276 -175 0 -175 0 0 -761z m637 39 c123
-81 133 -365 18 -480 -59 -59 -192 -76 -273 -34 l-32 17 0 232 c0 261 -8 233
80 280 52 28 154 20 207 -15z"/>
<path d="M3260 1265 l0 -735 170 0 170 0 0 349 0 350 35 27 c101 77 239 69
282 -16 9 -19 13 -114 13 -367 l0 -343 176 0 175 0 -3 413 c-3 400 -4 414 -26
467 -26 67 -90 135 -152 164 -37 17 -64 21 -150 21 -97 0 -110 -2 -170 -31
-36 -17 -91 -54 -122 -83 l-58 -53 0 286 0 286 -170 0 -170 0 0 -735z"/>
<path d="M210 1780 c-28 -6 -54 -19 -67 -35 -22 -25 -23 -35 -23 -178 0 -399
86 -734 254 -992 58 -87 227 -252 318 -309 208 -129 436 -186 745 -186 388 0
684 106 907 325 261 255 396 648 396 1149 0 169 0 173 -24 195 -54 50 -268 51
-321 1 -22 -20 -23 -30 -28 -238 -7 -282 -37 -447 -111 -607 -115 -248 -300
-393 -578 -452 -116 -25 -380 -24 -498 0 -173 37 -299 103 -410 216 -188 191
-280 498 -280 934 0 65 -4 127 -10 137 -5 10 -24 23 -42 29 -45 16 -174 22
-228 11z"/>
<path d="M6409 1577 c-57 -16 -103 -49 -140 -100 l-29 -40 0 71 0 72 -160 0
-160 0 0 -520 0 -520 160 0 160 0 0 298 0 299 29 40 c43 59 106 86 213 91 l88
4 0 148 c0 116 -3 149 -14 153 -35 14 -105 15 -147 4z"/>
<path d="M4592 1158 l3 -423 26 -55 c36 -77 71 -115 137 -147 50 -25 68 -28
153 -28 90 0 99 2 170 37 42 21 96 56 122 79 l47 41 0 -61 0 -61 170 0 170 0
0 520 0 520 -170 0 -170 0 0 -360 0 -360 -38 -25 c-21 -14 -63 -31 -94 -37
-48 -10 -62 -9 -102 6 -81 31 -81 29 -84 429 l-3 347 -170 0 -170 0 3 -422z"/>
</g>
</svg>
